<svg xmlns="http://www.w3.org/2000/svg" width="600" height="400" viewBox="0 0 600 400">
  <defs>
  <linearGradient id="g6" x1="0%" y1="0%" x2="100%" y2="100%">
    <stop offset="0%" stop-color="#2a0a3a"/>    <stop offset="45%" stop-color="#7a1d7d"/>    <stop offset="100%" stop-color="#f45c8c"/>
  </linearGradient>  <radialGradient id="gl6" cx="50%" cy="50%" r="50%">
    <stop offset="0%" stop-color="#ffd166" stop-opacity="0.35"/>
    <stop offset="100%" stop-color="#ffd166" stop-opacity="0"/>
  </radialGradient>  <filter id="blurG" x="-40%" y="-40%" width="180%" height="180%">
    <feGaussianBlur stdDeviation="30"/>
  </filter>  <filter id="blurS" x="-20%" y="-20%" width="140%" height="140%">
    <feGaussianBlur stdDeviation="12"/>
  </filter>
  </defs>
<rect width="600" height="400" fill="url(#g6)"/>
<g>    <circle cx="110" cy="110" r="90" fill="#ff7ac8" opacity="0.3" filter="url(#blurG)"/>
    <circle cx="510" cy="300" r="100" fill="#ff7ac8" opacity="0.26" filter="url(#blurG)"/>
    <circle cx="510" cy="90" r="60" fill="#ff7ac8" opacity="0.22" filter="url(#blurG)"/>
  </g><g>    <line x1="0" y1="0" x2="0" y2="400" stroke="#ffffff" stroke-opacity="0.06" stroke-width="1"/>
    <line x1="40" y1="0" x2="40" y2="400" stroke="#ffffff" stroke-opacity="0.06" stroke-width="1"/>
    <line x1="80" y1="0" x2="80" y2="400" stroke="#ffffff" stroke-opacity="0.06" stroke-width="1"/>
    <line x1="120" y1="0" x2="120" y2="400" stroke="#ffffff" stroke-opacity="0.06" stroke-width="1"/>
    <line x1="160" y1="0" x2="160" y2="400" stroke="#ffffff" stroke-opacity="0.06" stroke-width="1"/>
    <line x1="200" y1="0" x2="200" y2="400" stroke="#ffffff" stroke-opacity="0.06" stroke-width="1"/>
    <line x1="240" y1="0" x2="240" y2="400" stroke="#ffffff" stroke-opacity="0.06" stroke-width="1"/>
    <line x1="280" y1="0" x2="280" y2="400" stroke="#ffffff" stroke-opacity="0.06" stroke-width="1"/>
    <line x1="320" y1="0" x2="320" y2="400" stroke="#ffffff" stroke-opacity="0.06" stroke-width="1"/>
    <line x1="360" y1="0" x2="360" y2="400" stroke="#ffffff" stroke-opacity="0.06" stroke-width="1"/>
    <line x1="400" y1="0" x2="400" y2="400" stroke="#ffffff" stroke-opacity="0.06" stroke-width="1"/>
    <line x1="440" y1="0" x2="440" y2="400" stroke="#ffffff" stroke-opacity="0.06" stroke-width="1"/>
    <line x1="480" y1="0" x2="480" y2="400" stroke="#ffffff" stroke-opacity="0.06" stroke-width="1"/>
    <line x1="520" y1="0" x2="520" y2="400" stroke="#ffffff" stroke-opacity="0.06" stroke-width="1"/>
    <line x1="560" y1="0" x2="560" y2="400" stroke="#ffffff" stroke-opacity="0.06" stroke-width="1"/>
    <line x1="600" y1="0" x2="600" y2="400" stroke="#ffffff" stroke-opacity="0.06" stroke-width="1"/>
    <line x1="0" y1="0" x2="600" y2="0" stroke="#ffffff" stroke-opacity="0.06" stroke-width="1"/>
    <line x1="0" y1="40" x2="600" y2="40" stroke="#ffffff" stroke-opacity="0.06" stroke-width="1"/>
    <line x1="0" y1="80" x2="600" y2="80" stroke="#ffffff" stroke-opacity="0.06" stroke-width="1"/>
    <line x1="0" y1="120" x2="600" y2="120" stroke="#ffffff" stroke-opacity="0.06" stroke-width="1"/>
    <line x1="0" y1="160" x2="600" y2="160" stroke="#ffffff" stroke-opacity="0.06" stroke-width="1"/>
    <line x1="0" y1="200" x2="600" y2="200" stroke="#ffffff" stroke-opacity="0.06" stroke-width="1"/>
    <line x1="0" y1="240" x2="600" y2="240" stroke="#ffffff" stroke-opacity="0.06" stroke-width="1"/>
    <line x1="0" y1="280" x2="600" y2="280" stroke="#ffffff" stroke-opacity="0.06" stroke-width="1"/>
    <line x1="0" y1="320" x2="600" y2="320" stroke="#ffffff" stroke-opacity="0.06" stroke-width="1"/>
    <line x1="0" y1="360" x2="600" y2="360" stroke="#ffffff" stroke-opacity="0.06" stroke-width="1"/>
    <line x1="0" y1="400" x2="600" y2="400" stroke="#ffffff" stroke-opacity="0.06" stroke-width="1"/>
  </g><g>    <circle cx="90" cy="200" r="2.2" fill="#ffd166" opacity="0.5"/>
    <circle cx="150" cy="60" r="2.2" fill="#ffd166" opacity="0.4"/>
    <circle cx="520" cy="160" r="2.2" fill="#ffd166" opacity="0.5"/>
    <circle cx="480" cy="340" r="2.2" fill="#ffd166" opacity="0.4"/>
    <circle cx="60" cy="320" r="2.2" fill="#ffd166" opacity="0.4"/>
  </g>
  <g>
    <!-- 等距体素方块 -->
    <g transform="translate(300,215)">
      <!-- 大块 -->
      <path d="M0 -60 L52 -30 L0 0 L-52 -30 Z" fill="#ff7ac8" opacity="0.9"/>
      <path d="M0 0 L52 -30 L52 30 L0 60 Z" fill="#c9418f" opacity="0.95"/>
      <path d="M0 0 L-52 -30 L-52 30 L0 60 Z" fill="#ffd166" opacity="0.95"/>
      <!-- 小悬浮块 -->
      <g transform="translate(120,-40) scale(0.5)">
        <path d="M0 -60 L52 -30 L0 0 L-52 -30 Z" fill="#ff9f5a" opacity="0.85"/>
        <path d="M0 0 L52 -30 L52 30 L0 60 Z" fill="#f45c8c" opacity="0.9"/>
        <path d="M0 0 L-52 -30 L-52 30 L0 60 Z" fill="#ffd166" opacity="0.9"/>
      </g>
      <g transform="translate(-130,20) scale(0.38)">
        <path d="M0 -60 L52 -30 L0 0 L-52 -30 Z" fill="#8be9fd" opacity="0.8"/>
        <path d="M0 0 L52 -30 L52 30 L0 60 Z" fill="#3b6fd4" opacity="0.9"/>
        <path d="M0 0 L-52 -30 L-52 30 L0 60 Z" fill="#6c5ce7" opacity="0.9"/>
      </g>
      <!-- 光点 -->
      <circle cx="-40" cy="-40" r="4" fill="#ffd166" opacity="0.9"/>
      <circle cx="40" cy="10" r="3" fill="#ffd166" opacity="0.7"/>
    </g>
  </g>

</svg>